<?xml version="1.0" encoding="utf-8"?>
<!-- Generator: Adobe Illustrator 23.1.0, SVG Export Plug-In . SVG Version: 6.00 Build 0)  -->
<svg version="1.1" id="Calque_1" xmlns="http://www.w3.org/2000/svg" xmlns:xlink="http://www.w3.org/1999/xlink" x="0px" y="0px"
	 viewBox="0 0 80 80" style="enable-background:new 0 0 80 80;" xml:space="preserve">
<g>
	<g>
		<path d="M12.2,74.8c2.1-2.1,4.1-4.1,6.2-6.2c4.9-4.9,9.8-9.8,14.8-14.8c6-6,12-12,18-18c5.2-5.2,10.4-10.4,15.5-15.5
			c2.5-2.5,5.1-5,7.5-7.5c0,0,0.1-0.1,0.1-0.1c1.9-1.9,2-5.2,0-7.1c-2-1.8-5.1-2-7.1,0c-2.1,2.1-4.1,4.1-6.2,6.2
			c-4.9,4.9-9.8,9.8-14.8,14.8c-6,6-12,12-18,18c-5.2,5.2-10.4,10.4-15.5,15.5c-2.5,2.5-5.1,5-7.5,7.5c0,0-0.1,0.1-0.1,0.1
			c-1.9,1.9-2,5.2,0,7.1C7.1,76.6,10.2,76.7,12.2,74.8L12.2,74.8z"/>
	</g>
</g>
<g>
	<g>
		<path d="M5.3,12.7c2.1,2.1,4.1,4.1,6.2,6.2c4.9,4.9,9.8,9.8,14.8,14.8c6,6,12,12,18,18c5.2,5.2,10.4,10.4,15.5,15.5
			c2.5,2.5,5,5.1,7.5,7.5c0,0,0.1,0.1,0.1,0.1c1.9,1.9,5.2,2,7.1,0c1.8-2,2-5.1,0-7.1c-2.1-2.1-4.1-4.1-6.2-6.2
			c-4.9-4.9-9.8-9.8-14.8-14.8c-6-6-12-12-18-18C30.3,23.6,25.1,18.4,20,13.2c-2.5-2.5-5-5.1-7.5-7.5c0,0-0.1-0.1-0.1-0.1
			c-1.9-1.9-5.2-2-7.1,0C3.4,7.6,3.3,10.7,5.3,12.7L5.3,12.7z"/>
	</g>
</g>
</svg>
