<?xml version="1.0" encoding="utf-8"?>
<!-- Generator: Adobe Illustrator 23.1.0, SVG Export Plug-In . SVG Version: 6.00 Build 0)  -->
<svg version="1.1" id="Calque_1" xmlns="http://www.w3.org/2000/svg" xmlns:xlink="http://www.w3.org/1999/xlink" x="0px" y="0px"
	 viewBox="0 0 80 80" style="enable-background:new 0 0 80 80;" xml:space="preserve">
<style type="text/css">
	.st0{fill:#FFFFFF;}
</style>
<g>
	<g>
		<path class="st0" d="M10.1,24.9c6.7,0,13.5,0,20.2,0c10.7,0,21.5,0,32.2-0.1c2.5,0,4.9,0,7.4,0c2.6,0,5.1-2.3,5-5
			c-0.1-2.7-2.2-5-5-5c-6.7,0-13.5,0-20.2,0c-10.7,0-21.5,0-32.2,0.1c-2.5,0-4.9,0-7.4,0c-2.6,0-5.1,2.3-5,5
			C5.2,22.6,7.3,24.9,10.1,24.9L10.1,24.9z"/>
	</g>
</g>
<g>
	<g>
		<path class="st0" d="M10,45.2c6.7,0,13.5,0,20.2,0c10.7,0,21.5,0,32.2-0.1c2.5,0,4.9,0,7.4,0c2.6,0,5.1-2.3,5-5
			c-0.1-2.7-2.2-5-5-5c-6.7,0-13.5,0-20.2,0c-10.7,0-21.5,0-32.2,0.1c-2.5,0-4.9,0-7.4,0c-2.6,0-5.1,2.3-5,5
			C5.1,42.9,7.2,45.2,10,45.2L10,45.2z"/>
	</g>
</g>
<g>
	<g>
		<path class="st0" d="M10.1,65.2c6.7,0,13.5,0,20.2,0c10.7,0,21.5,0,32.2-0.1c2.5,0,4.9,0,7.4,0c2.6,0,5.1-2.3,5-5
			c-0.1-2.7-2.2-5-5-5c-6.7,0-13.5,0-20.2,0c-10.7,0-21.5,0-32.2,0.1c-2.5,0-4.9,0-7.4,0c-2.6,0-5.1,2.3-5,5
			C5.2,62.9,7.3,65.2,10.1,65.2L10.1,65.2z"/>
	</g>
</g>
</svg>
