<?xml version="1.0" encoding="utf-8"?>
<!-- Generator: Adobe Illustrator 23.1.0, SVG Export Plug-In . SVG Version: 6.00 Build 0)  -->
<svg version="1.1" id="Calque_1" xmlns="http://www.w3.org/2000/svg" xmlns:xlink="http://www.w3.org/1999/xlink" x="0px" y="0px"
	 viewBox="0 0 444 436" style="enable-background:new 0 0 444 436;" xml:space="preserve">
<style type="text/css">
	.st0{fill:none;}
	.st1{fill:#FAFAFA;}
</style>
<g>
	<path class="st0" d="M222.1,435.9c-72.6,0-145.2,0-217.8,0.1c-3.7,0-4.3-0.9-4.3-4.4C0.1,289.2,0.1,146.8,0,4.4C0,1.1,0.4,0,4.3,0
		c145.2,0.1,290.4,0.1,435.7,0c3.5,0,4,0.8,4,4.1c-0.1,142.6-0.1,285.1,0,427.7c0,4.1-1.4,4.1-4.5,4.1
		C367,435.9,294.6,435.9,222.1,435.9z"/>
	<path class="st1" d="M117,328.8c-3.3-3.6-6.6-7.2-9.8-10.7l0.2,0.2c-2.2-4.8-4.8-9.3-9.3-12.4l0.1,0.1c-2.7-3.7-5.9-6.8-10.4-8.3
		l0.2,0.2c-5.7-4.2-12.3-5.4-19.2-4.9c-3.7,0.3-4.6,2.1-2.2,4.9c2.2,2.4,4.6,4.8,7.4,6.4c8.6,4.9,13.6,12.7,18,21.1
		c3.1,5.8,5.3,12.1,8.7,17.7c6.3,10.3,16.3,15.5,27.8,17.8c11.4,2.3,22.9,3,34.4,0.2c5-1.2,6.2-0.3,6,4.9c-0.5,14.4,1.7,28.8,1,43.2
		c-0.1,2.8-0.1,5.4-0.9,8.2c-1.6,5.8-7.4,10-13.2,8.4c-13.1-3.5-25.3-9.2-37.2-15.7c-11.8-6.4-22.9-13.9-33.2-22.5
		c-10.5-8.7-20.2-18.3-28.6-29.2c-9.4-12-18-24.4-24.9-38c-10.1-19.9-17.1-40.9-20.8-62.8c-1.3-7.9-2-15.9-2.4-23.9
		c-0.4-7.2-1-14.5-0.7-21.8c1.2-27.7,6.7-54.4,17.9-79.9c11.4-26,27.6-48.6,48.4-67.7c11.2-10.3,23.8-18.8,37-26.5
		c18.5-10.9,38.5-17.8,59.2-22.4c11.4-2.5,23-5.1,34.9-4.3c3.9,0.2,7.4-1.2,11.3-1.1c24.5,0.8,48.5,3.8,71.9,11.3
		c25.9,8.3,49.3,21.1,70.3,38.3c25.6,21,45,46.9,58.3,77.3c6.8,15.5,11.3,31.7,13.8,48.5c2,13.2,3.7,26.5,2.7,39.7
		c-1.1,13.6-1.7,27.2-4.5,40.8c-3.9,18.9-10,36.9-18.5,54c-8.3,16.7-19,31.8-31.2,46.1c-19.6,22.8-43.6,39.3-70.6,51.7
		c-7.9,3.6-15.8,8.1-25.3,7.3c-6-0.5-9.7-3.8-9.7-9.9c0-23.8-0.1-47.6,0-71.5c0-13.3-2.5-25.7-10.9-36.5c-0.9-1.2-3.3-2.8-1.9-4.6
		c1.1-1.5,3.4-1.4,5.4-1.7c18.1-2.1,36.3-4.6,52.7-13.1c19.2-9.9,29.9-26.3,34.8-47.2c2.6-11.1,3.6-22.3,3.6-33.5
		c0.1-15.5-5.3-29.4-16.1-40.9c-4.2-4.5-6.6-8.6-4.2-15.9c5.3-16,2.2-32.1-3.6-47.6c-1.1-2.9-4.6-2.9-6.9-2.5
		c-13.1,2.3-24.9,8-36.3,14.7c-4.6,2.7-9.1,5.5-13.5,8.5c-2.1,1.4-3.7,0.1-5.5-0.3c-10.5-2.3-20.9-4.4-31.6-5.3
		c-10.8-0.9-21.6-1-32.2-0.5c-12.4,0.6-24.8,2.7-36.8,6.3c-2.4,0.7-4.1,0.3-6.3-1.1c-12.1-7.8-24.3-15.7-38.4-19.6
		c-4.3-1.2-8.4-3.7-13.5-2c-2.5,0.8-3.2,1.6-4.1,3.8c-3.4,8.3-5.1,17.3-5.2,25.9c-0.2,7.2,0,15,2.9,22.1c1.7,4.3,0.7,7.7-2.4,11.1
		c-10,10.9-15.5,23.5-15.9,38.5c-0.4,15.2,0.2,30.2,4.7,44.7c7.7,24.5,23.6,40.6,48.9,47.4c11.8,3.2,23.6,5.3,35.7,6.5
		c2.1,0.2,4.6,0.4,5.5,2c1.1,1.9-1.6,2.9-2.6,4.3c-4.7,6.4-8.8,13.4-9.7,21.2c-0.6,4.8-3.6,5.4-6.3,6.3c-8.5,2.6-17.2,4.1-26.1,3.1
		c-7.3-0.8-13.8-4-19.9-7.9C117.1,330.2,116.7,329.9,117,328.8z"/>
	<path class="st1" d="M129.9,346c-3.2-0.5-6.6-1.1-6.8-5.3c-0.2-3,2.7-3.8,4.7-3.6c2.7,0.3,6.2,0.4,6.2,4.9
		C134.1,345,133,346.3,129.9,346z"/>
	<path class="st1" d="M117,328.8c0.4,0.4,0.8,0.8,1.2,1.2c-0.2,2.2,2.5,4.5-0.4,6.7c-2.7,2-4.9,1.1-6.9-0.8
		c-1.9-1.8-2.7-4.3-1.4-6.6c1.2-2.3,3.6-1.6,5.7-0.8C115.7,328.7,116.4,328.7,117,328.8z"/>
	<path class="st1" d="M162,345.9c-2.2-0.1-5.1,0.7-4.9-3c0.2-3.6,2.4-4.9,5.8-5c2.9-0.1,5.1,0.8,5.1,4
		C167.9,345.8,165,346.1,162,345.9z"/>
	<path class="st1" d="M146.4,347.9c-2.7,0-5.4,0.6-5.4-3.4c0.1-4,2.8-4.3,5.6-4.5c3-0.2,5.3,1.5,5.2,4.3
		C151.8,347.7,149,348.2,146.4,347.9z"/>
	<path class="st1" d="M107.2,318.1c0,1,0.1,2-0.2,3c-0.4,1.3,1.3,3.7-1.5,3.8c-2,0.1-4.3,0.9-5.5-1.9c-0.8-2-1.8-4.1-0.4-6
		c1.4-1.9,3.5-1.3,5.4-0.5c0.9,0.4,1.5,1.2,2.3,1.8C107.3,318.3,107.2,318.1,107.2,318.1z"/>
	<path class="st1" d="M98,305.9c-0.1,2.5,3.8,6.1-2,7.1c-2.1,0.4-3.7-0.6-4.6-2.2c-0.9-1.6-1-3.9-0.1-5.2c1.1-1.4,3.2-0.9,4.9,0
		c0.5,0.3,1.2,0.3,1.9,0.4C98.1,306,98,305.9,98,305.9z"/>
	<path class="st1" d="M87.8,297.7c0.5,1.7,3.4,2.6,1.9,5c-0.8,1.4-2.2,1.3-3.5,1.2c-2.5-0.1-4-1.4-4.1-4c-0.2-3.4,2.5-1.6,3.9-2
		c0.6-0.2,1.3-0.1,2-0.1C87.9,297.9,87.8,297.7,87.8,297.7z"/>
</g>
</svg>
