<svg version="1.1" id="linkedinLogo" xmlns="http://www.w3.org/2000/svg" xmlns:xlink="http://www.w3.org/1999/xlink" x="0px" y="0px"
	 viewBox="0 0 89.5 89.5" style="enable-background:new 0 0 89.5 89.5;" xml:space="preserve">
<style type="text/css">
	.st0{fill:#FAFAFA;}
</style>
<g>
	<path class="st0" d="M22.6,13.2c0,5.4-3.9,9.6-10.4,9.6l0,0c-6.6,0-10.4-4.6-10.4-9.6c0-5.4,4.2-9.6,10.4-9.6S22.2,7.8,22.6,13.2z
		 M2.9,85.7h18.5V30.2H2.9V85.7z M66.5,29c-9.6,0-14.3,5.4-16.6,9.3l0,0l0,0l0,0v-7.7H31.5c0.4,5,0,55.5,0,55.5H50V55.2
		c0-1.5,0-3.5,0.8-4.6C51.9,47.1,55,44,60,44c6.6,0,9.3,5,9.3,12.3V86h18.5V54.4C87.7,36.7,78.5,29,66.5,29z"/>
</g>
</svg>
