<svg version="1.1" id="twitterLogo" xmlns="http://www.w3.org/2000/svg" xmlns:xlink="http://www.w3.org/1999/xlink" x="0px" y="0px"
	 viewBox="0 0 124 124" style="enable-background:new 0 0 124 124;" xml:space="preserve">
<style type="text/css">
	.st0{fill:#FAFAFA;}
</style>
<path class="st0" d="M111.7,33.2c-3.1,1.5-6.7,2.4-10.1,2.9c1.7-0.2,4-3.3,5-4.4c1.5-1.8,2.7-3.9,3.4-6.2c0.1-0.2,0.1-0.4,0-0.6
	c-0.2-0.1-0.3,0-0.6,0c-3.8,2-7.7,3.6-12,4.6c-0.3,0.1-0.6,0-0.8-0.2c-0.3-0.4-0.7-0.8-1-1.1c-1.8-1.5-3.7-2.7-5.8-3.6
	c-2.8-1.1-5.9-1.7-9-1.5c-2.9,0.2-5.8,1-8.4,2.4c-2.6,1.3-4.9,3.3-6.8,5.6c-1.9,2.4-3.4,5.2-4,8.2c-0.7,2.9-0.7,5.7-0.2,8.6
	c0.1,0.4,0,0.6-0.4,0.4c-16.6-2.4-30.3-8.2-41.4-20.9c-0.4-0.6-0.8-0.6-1.1,0c-4.8,7.3-2.5,18.9,3.6,24.8c0.8,0.8,1.7,1.6,2.6,2.2
	c-0.3,0.1-4.4-0.3-8-2.2c-0.4-0.3-0.7-0.1-0.8,0.4c0,0.8,0,1.5,0.1,2.4c0.9,7.4,6.1,14.2,13,16.8c0.8,0.3,1.8,0.7,2.7,0.8
	c-1.6,0.3-3.3,0.6-7.8,0.2c-0.6-0.1-0.8,0.2-0.6,0.7c3.4,9.4,10.8,12.2,16.4,13.8c0.8,0.1,1.5,0.1,2.2,0.3c0,0.1-0.1,0.1-0.1,0.1
	c-1.8,2.8-8.2,4.9-11.2,5.9c-5.4,1.9-11.3,2.7-17,2.1c-0.9-0.1-1.1-0.1-1.3,0c-0.2,0.1,0,0.3,0.2,0.6c1.1,0.8,2.4,1.5,3.6,2.1
	c3.6,1.9,7.4,3.5,11.3,4.6c20.4,5.6,43.5,1.5,58.9-13.8c12-11.9,16.3-28.4,16.3-45c0-0.7,0.8-1,1.2-1.3c3.1-2.4,5.6-5.2,8-8.3
	c0.6-0.7,0.4-1.3,0.4-1.6v-0.1C112,33,112.1,33,111.7,33.2z"/>
<path class="st0" d="M41.7,105.4C50.1,105.4,42,105.4,41.7,105.4C42.8,105.4,41.6,105.4,41.7,105.4z M41.7,105.4
	C41.6,105.4,40,105.4,41.7,105.4C41.7,105.4,41.4,105.4,41.7,105.4z M45.1,105.5C45.1,105.3,46.9,105.5,45.1,105.5
	C45.1,105.4,45.3,105.5,45.1,105.5z M80.5,23.5c-0.1,0.1-0.2,0.1-0.4,0C80.2,23.5,80.4,23.5,80.5,23.5z"/>
</svg>
